<?xml version="1.0" standalone="no"?>
<!DOCTYPE svg PUBLIC "-//W3C//DTD SVG 20010904//EN"
 "http://www.w3.org/TR/2001/REC-SVG-20010904/DTD/svg10.dtd">
<svg version="1.0" xmlns="http://www.w3.org/2000/svg"
 width="125.000000pt" height="125.000000pt" viewBox="0 0 125.000000 125.000000"
 preserveAspectRatio="xMidYMid meet">

<g transform="translate(0.000000,125.000000) scale(0.100000,-0.100000)"
fill="#000000" stroke="none">
<path d="M502 1228 c-9 -9 -12 -70 -12 -215 0 -112 -3 -203 -6 -203 -3 0 -37
27 -76 60 -38 33 -78 60 -89 60 -28 0 -23 17 6 24 31 8 65 60 65 101 0 79 -80
132 -152 102 -93 -39 -96 -164 -5 -202 l31 -13 -34 -15 c-44 -20 -190 -157
-190 -180 0 -9 27 -46 60 -84 l60 -67 0 -248 c0 -235 1 -249 20 -268 24 -24
48 -25 76 -5 19 12 24 12 40 0 27 -21 58 -18 80 6 18 20 19 42 21 338 2 174 3
318 3 320 0 1 16 -11 35 -28 20 -17 40 -31 45 -31 6 0 10 -22 10 -49 0 -82 -1
-81 110 -81 55 0 101 -4 104 -9 3 -5 -17 -100 -45 -211 -27 -111 -49 -214 -47
-228 2 -14 11 -30 21 -36 38 -24 50 2 108 240 55 224 72 265 99 238 5 -5 31
-109 57 -230 27 -122 54 -229 62 -238 17 -20 45 -21 61 -1 15 18 15 17 -40
264 -22 102 -40 191 -40 198 0 10 24 13 98 13 63 0 102 4 110 12 9 9 12 96 12
329 0 275 -2 320 -16 333 -13 14 -57 16 -323 16 -225 0 -310 -3 -319 -12z
m627 -12 c8 -9 11 -105 9 -332 l-3 -319 -315 0 -315 0 -3 55 c-3 51 0 58 28
85 l30 29 0 -60 0 -59 260 3 260 3 0 274 0 275 -260 0 -260 0 0 -138 0 -138
-30 -29 -30 -29 0 187 c0 167 2 187 18 196 10 6 129 11 308 11 235 0 294 -3
303 -14z m-814 -70 c33 -14 65 -59 65 -91 0 -55 -72 -112 -125 -99 -37 9 -75
59 -75 99 0 39 39 91 73 98 12 2 23 5 25 6 1 0 18 -5 37 -13z m753 -253 l2
-263 -250 0 -250 0 0 63 c0 78 1 78 165 175 213 124 214 140 6 67 -175 -61
-171 -63 -171 89 0 68 3 126 7 130 4 3 115 5 247 4 l241 -3 3 -262z m-218 63
c0 -5 -181 -113 -204 -122 -8 -3 -15 4 -18 19 -5 24 2 28 101 65 112 42 121
45 121 38z m-444 -102 l76 -67 40 47 c41 48 80 61 92 30 10 -26 8 -31 -50 -98
-63 -76 -81 -80 -134 -36 -19 17 -38 30 -42 30 -4 0 -8 -148 -8 -329 0 -326 0
-330 -21 -345 -19 -13 -25 -13 -50 0 l-29 15 -2 177 -2 177 -3 -175 c-3 -161
-5 -176 -23 -192 -26 -21 -59 -12 -71 19 -5 13 -9 125 -9 249 0 209 1 224 18
224 24 0 49 20 56 46 5 16 -4 34 -33 69 l-40 48 42 38 c23 20 40 39 37 42 -3
3 -26 -14 -52 -37 l-46 -43 38 -44 c53 -60 51 -99 -5 -99 -18 0 -125 128 -125
150 0 10 38 51 85 94 82 73 88 76 135 76 47 0 54 -4 126 -66z m374 -316 c0 -7
-23 -110 -51 -228 -52 -219 -68 -255 -97 -226 -11 11 -12 23 -4 57 43 188 93
393 98 400 8 14 54 11 54 -3z m164 -100 c67 -286 75 -338 59 -354 -26 -25 -40
0 -67 119 -47 201 -74 336 -68 342 3 3 15 5 28 5 20 0 24 -11 48 -112z"/>
</g>
</svg>
